<?xml version="1.0" encoding="UTF-8" standalone="no"?>
<svg
   id="regular"
   enable-background="new 0 0 24 24"
   height="512"
   viewBox="0 0 24 24"
   width="512"
   version="1.1"
   sodipodi:docname="cancelar-red.svg"
   inkscape:version="1.1 (ce6663b3b7, 2021-05-25)"
   xmlns:inkscape="http://www.inkscape.org/namespaces/inkscape"
   xmlns:sodipodi="http://sodipodi.sourceforge.net/DTD/sodipodi-0.dtd"
   xmlns="http://www.w3.org/2000/svg"
   xmlns:svg="http://www.w3.org/2000/svg">
  <defs
     id="defs9" />
  <sodipodi:namedview
     id="namedview7"
     pagecolor="#ffffff"
     bordercolor="#666666"
     borderopacity="1.0"
     inkscape:pageshadow="2"
     inkscape:pageopacity="0.0"
     inkscape:pagecheckerboard="0"
     showgrid="false"
     inkscape:zoom="1.0292969"
     inkscape:cx="255.99999"
     inkscape:cy="255.99999"
     inkscape:window-width="1366"
     inkscape:window-height="712"
     inkscape:window-x="0"
     inkscape:window-y="0"
     inkscape:window-maximized="1"
     inkscape:current-layer="regular" />
  <path
     d="m19.28 4.72c-.293-.293-.768-.293-1.061 0l-6.219 6.219-6.1-6.1c-.293-.293-.768-.293-1.061 0s-.293.768 0 1.061l6.1 6.1-6.22 6.22c-.293.293-.293.768 0 1.061.146.146.338.22.53.22s.384-.073.53-.22l6.22-6.22 6.22 6.22c.146.146.338.22.53.22s.384-.073.53-.22c.293-.293.293-.768 0-1.061l-6.218-6.22 6.22-6.22c.292-.293.292-.767-.001-1.06z"
     id="path2"
     style="fill:#ed6663;fill-opacity:1" />
  <path
     d="m21.25 0h-18.5c-1.517 0-2.75 1.233-2.75 2.75v18.5c0 1.517 1.233 2.75 2.75 2.75h18.5c1.517 0 2.75-1.233 2.75-2.75v-18.5c0-1.517-1.233-2.75-2.75-2.75zm1.25 21.25c0 .689-.561 1.25-1.25 1.25h-18.5c-.689 0-1.25-.561-1.25-1.25v-18.5c0-.689.561-1.25 1.25-1.25h18.5c.689 0 1.25.561 1.25 1.25z"
     id="path4"
     style="fill:#ed6663;fill-opacity:1" />
</svg>
