<?xml version="1.0" encoding="UTF-8" standalone="no"?>
<!-- Generator: Adobe Illustrator 18.0.0, SVG Export Plug-In . SVG Version: 6.00 Build 0)  -->

<svg
   version="1.1"
   id="Capa_1"
   x="0px"
   y="0px"
   viewBox="0 0 148.961 148.961"
   style="enable-background:new 0 0 148.961 148.961;"
   xml:space="preserve"
   sodipodi:docname="check-green.svg"
   inkscape:version="1.1 (ce6663b3b7, 2021-05-25)"
   xmlns:inkscape="http://www.inkscape.org/namespaces/inkscape"
   xmlns:sodipodi="http://sodipodi.sourceforge.net/DTD/sodipodi-0.dtd"
   xmlns="http://www.w3.org/2000/svg"
   xmlns:svg="http://www.w3.org/2000/svg"><defs
   id="defs41" /><sodipodi:namedview
   id="namedview39"
   pagecolor="#ffffff"
   bordercolor="#666666"
   borderopacity="1.0"
   inkscape:pageshadow="2"
   inkscape:pageopacity="0.0"
   inkscape:pagecheckerboard="0"
   showgrid="false"
   inkscape:zoom="3.5378388"
   inkscape:cx="-50.454532"
   inkscape:cy="74.480499"
   inkscape:window-width="1366"
   inkscape:window-height="712"
   inkscape:window-x="0"
   inkscape:window-y="0"
   inkscape:window-maximized="1"
   inkscape:current-layer="Capa_1" />
<g
   id="g6"
   style="fill:#addb31;fill-opacity:1">
	<path
   d="M146.764,17.379c-2.93-2.93-7.679-2.929-10.606,0.001L68.852,84.697L37.847,53.691c-2.93-2.929-7.679-2.93-10.606-0.001   c-2.93,2.929-2.93,7.678-0.001,10.606l36.309,36.311c1.407,1.407,3.314,2.197,5.304,2.197c1.989,0,3.897-0.79,5.304-2.197   l72.609-72.622C149.693,25.057,149.693,20.308,146.764,17.379z"
   id="path2"
   style="fill:#addb31;fill-opacity:1" />
	<path
   d="M130.57,65.445c-4.142,0-7.5,3.357-7.5,7.5v55.57H15V20.445h85.57c4.143,0,7.5-3.357,7.5-7.5c0-4.142-3.357-7.5-7.5-7.5   H7.5c-4.142,0-7.5,3.357-7.5,7.5v123.07c0,4.143,3.358,7.5,7.5,7.5h123.07c4.143,0,7.5-3.357,7.5-7.5v-63.07   C138.07,68.803,134.713,65.445,130.57,65.445z"
   id="path4"
   style="fill:#addb31;fill-opacity:1" />
</g>
<g
   id="g8">
</g>
<g
   id="g10">
</g>
<g
   id="g12">
</g>
<g
   id="g14">
</g>
<g
   id="g16">
</g>
<g
   id="g18">
</g>
<g
   id="g20">
</g>
<g
   id="g22">
</g>
<g
   id="g24">
</g>
<g
   id="g26">
</g>
<g
   id="g28">
</g>
<g
   id="g30">
</g>
<g
   id="g32">
</g>
<g
   id="g34">
</g>
<g
   id="g36">
</g>
</svg>
